<svg xmlns="http://www.w3.org/2000/svg" width="24" height="24" viewBox="0 0 24 24" fill="none">
<path d="M12 15.5C12.9807 15.5 13.8093 15.162 14.486 14.486C15.162 13.8087 15.5 12.98 15.5 12C15.5 11.0193 15.162 10.1907 14.486 9.514C13.8087 8.838 12.98 8.5 12 8.5C11.0193 8.5 10.1907 8.838 9.514 9.514C8.838 10.1913 8.5 11.02 8.5 12C8.5 12.9807 8.838 13.8093 9.514 14.486C10.1913 15.162 11.02 15.5 12 15.5ZM12 13C11.7167 13 11.4793 12.904 11.288 12.712C11.0967 12.52 11.0007 12.2827 11 12C11 11.7167 11.096 11.4793 11.288 11.288C11.48 11.0967 11.7173 11.0007 12 11C12.2833 11 12.521 11.096 12.713 11.288C12.905 11.48 13.0007 11.7173 13 12C13 12.2833 12.904 12.521 12.712 12.713C12.52 12.905 12.2827 13.0007 12 13ZM12.003 21C10.759 21 9.589 20.764 8.493 20.292C7.39767 19.8193 6.44467 19.178 5.634 18.368C4.82333 17.5587 4.18167 16.6067 3.709 15.512C3.23633 14.4173 3 13.2477 3 12.003C3 10.759 3.236 9.589 3.708 8.493C4.18067 7.39767 4.822 6.44467 5.632 5.634C6.44133 4.82333 7.39333 4.18167 8.488 3.709C9.58267 3.23633 10.7523 3 11.997 3C13.241 3 14.411 3.236 15.507 3.708C16.6023 4.18067 17.5553 4.822 18.366 5.632C19.1767 6.44133 19.8183 7.39333 20.291 8.488C20.7637 9.58267 21 10.7523 21 11.997C21 13.241 20.764 14.411 20.292 15.507C19.8193 16.6023 19.178 17.5553 18.368 18.366C17.5587 19.1767 16.6067 19.8183 15.512 20.291C14.4173 20.7637 13.2477 21 12.003 21ZM12 20C14.2333 20 16.125 19.225 17.675 17.675C19.225 16.125 20 14.2333 20 12C20 9.76667 19.225 7.875 17.675 6.325C16.125 4.775 14.2333 4 12 4C9.76667 4 7.875 4.775 6.325 6.325C4.775 7.875 4 9.76667 4 12C4 14.2333 4.775 16.125 6.325 17.675C7.875 19.225 9.76667 20 12 20Z" fill="white"/>
</svg>