<svg xmlns="http://www.w3.org/2000/svg" width="36" height="36" viewBox="0 0 36 36" fill="none">
<path fill-rule="evenodd" clip-rule="evenodd" d="M20.9884 22.8343C19.0228 24.4048 16.5304 25.163 14.0232 24.9533C11.516 24.7436 9.18426 23.5818 7.50688 21.7066C5.82951 19.8313 4.93383 17.385 5.00381 14.87C5.07379 12.355 6.10412 9.96228 7.88317 8.18322C9.66223 6.40416 12.055 5.37384 14.57 5.30386C17.0849 5.23388 19.5313 6.12956 21.4065 7.80693C23.2817 9.48431 24.4435 11.8161 24.6532 14.3233C24.863 16.8305 24.1047 19.3228 22.5342 21.2884L30.0534 28.8061C30.1608 28.9063 30.247 29.027 30.3068 29.1612C30.3666 29.2953 30.3987 29.4402 30.4013 29.587C30.4039 29.7339 30.3769 29.8798 30.3219 30.016C30.2669 30.1522 30.185 30.2759 30.0811 30.3797C29.9773 30.4836 29.8536 30.5655 29.7174 30.6205C29.5812 30.6755 29.4353 30.7025 29.2884 30.6999C29.1416 30.6973 28.9968 30.6652 28.8626 30.6054C28.7284 30.5456 28.6077 30.4594 28.5075 30.352L20.9884 22.8343ZM9.42962 20.5563C8.35927 19.4859 7.63026 18.1221 7.33475 16.6375C7.03923 15.1528 7.19046 13.6138 7.76933 12.2151C8.3482 10.8164 9.32872 9.62062 10.587 8.77899C11.8452 7.93735 13.3247 7.4876 14.8385 7.48659C16.3523 7.48557 17.8324 7.93332 19.0918 8.77326C20.3512 9.61321 21.3334 10.8076 21.9141 12.2056C22.4949 13.6036 22.6482 15.1423 22.3546 16.6274C22.0611 18.1124 21.334 19.4771 20.265 20.549L20.2577 20.5563L20.2505 20.5622C18.8141 21.9952 16.8677 22.7994 14.8388 22.7984C12.8099 22.7973 10.8644 21.9909 9.42962 20.5563Z" fill="#0E9EEF"/>
</svg>