<svg xmlns="http://www.w3.org/2000/svg" width="61" height="38" viewBox="0 0 61 38" fill="none">
<path d="M22.6687 3.84485L24.8651 3.18328C25.8649 2.88164 26.9403 2.95416 27.8906 3.3873C28.8409 3.82044 29.6011 4.5846 30.0293 5.53713L31.396 8.57769C31.7643 9.39679 31.8669 10.3106 31.6894 11.191C31.5119 12.0714 31.0633 12.8741 30.4063 13.4865L28.0181 15.7133C27.9886 15.7409 27.9644 15.7736 27.9466 15.8099C27.6966 16.3206 28.0763 17.6848 29.2658 19.7462C30.6075 22.0697 31.6435 22.9879 32.1238 22.8463L35.2583 21.8871C36.1167 21.6249 37.0356 21.638 37.8863 21.9244C38.7369 22.2108 39.4766 22.7561 40.0017 23.4841L41.944 26.174C42.5539 27.0186 42.8363 28.0559 42.739 29.093C42.6416 30.1302 42.1711 31.0968 41.4148 31.8132L39.7437 33.3943C39.1626 33.9448 38.4569 34.3465 37.6869 34.5651C36.9169 34.7838 36.1055 34.8129 35.3218 34.65C30.6683 33.6815 26.4991 29.9343 22.7785 23.4907C19.0565 17.0431 17.8961 11.5521 19.3913 7.03624C19.6416 6.28021 20.0701 5.59553 20.6408 5.04005C21.2115 4.48458 21.9062 4.07463 22.6687 3.84485ZM23.2429 5.74486C22.7854 5.88267 22.3678 6.12858 22.0253 6.46182C21.6829 6.79506 21.4256 7.20583 21.2754 7.65943C19.9867 11.5508 21.0306 16.494 24.4972 22.4983C27.9612 28.4987 31.7162 31.8727 35.7253 32.7063C36.1958 32.8041 36.6829 32.7866 37.1451 32.6553C37.6073 32.5239 38.0308 32.2827 38.3795 31.9521L40.0493 30.3723C40.4567 29.9867 40.7103 29.4662 40.7628 28.9077C40.8154 28.3492 40.6634 27.7906 40.3351 27.3357L38.3928 24.6445C38.1101 24.2526 37.7119 23.959 37.2539 23.8047C36.796 23.6505 36.3013 23.6434 35.8391 23.7844L32.6967 24.7463C30.9581 25.2637 29.3227 23.8149 27.5471 20.7373C26.0427 18.1333 25.5213 16.2518 26.1644 14.938C26.2888 14.6839 26.4581 14.455 26.6645 14.2619L29.0528 12.035C29.4066 11.7053 29.6484 11.273 29.744 10.7989C29.8396 10.3247 29.7844 9.83255 29.586 9.39141L28.2192 6.35218C27.9887 5.83915 27.5793 5.42757 27.0675 5.19432C26.5556 4.96106 25.9764 4.92206 25.438 5.08462L23.2416 5.74619L23.2429 5.74486Z" fill="white"/>
</svg>