<svg xmlns="http://www.w3.org/2000/svg" width="18" height="19" viewBox="0 0 18 19" fill="none">
<path d="M1 9.6632C1 7.832 1 6.9168 1.416 6.1584C1.8304 5.3992 2.5896 4.9288 4.1072 3.9864L5.7072 2.9936C7.3112 1.9976 8.1136 1.5 9 1.5C9.8864 1.5 10.688 1.9976 12.2928 2.9936L13.8928 3.9864C15.4104 4.9288 16.1696 5.3992 16.5848 6.1584C17 6.9168 17 7.832 17 9.6624V10.88C17 14 17 15.5608 16.0624 16.5304C15.1256 17.5 13.6168 17.5 10.6 17.5H7.4C4.3832 17.5 2.8744 17.5 1.9376 16.5304C1 15.5608 1 14.0008 1 10.88V9.6632Z" stroke="white" stroke-width="1.5"/>
<path d="M9 11.9V14.3" stroke="white" stroke-width="1.5" stroke-linecap="round"/>
</svg>