<svg xmlns="http://www.w3.org/2000/svg" width="62" height="38" viewBox="0 0 62 38" fill="none">
<path d="M37.0391 6.87695H25.0391C21.7254 6.87695 19.0391 9.56324 19.0391 12.877V24.877C19.0391 28.1907 21.7254 30.877 25.0391 30.877H37.0391C40.3528 30.877 43.0391 28.1907 43.0391 24.877V12.877C43.0391 9.56324 40.3528 6.87695 37.0391 6.87695Z" stroke="white" stroke-width="2" stroke-linecap="round" stroke-linejoin="round"/>
<path d="M37.6391 12.277H37.6511M35.8391 18.121C35.9872 19.1197 35.8166 20.1396 35.3516 21.0358C34.8866 21.932 34.1509 22.6587 33.2491 23.1126C32.3472 23.5665 31.3252 23.7245 30.3284 23.5641C29.3317 23.4037 28.4108 22.9331 27.6969 22.2192C26.983 21.5053 26.5124 20.5844 26.352 19.5876C26.1916 18.5908 26.3496 17.5689 26.8035 16.667C27.2574 15.7652 27.9841 15.0295 28.8803 14.5645C29.7764 14.0995 30.7964 13.9289 31.7951 14.077C32.8138 14.228 33.7569 14.7027 34.4851 15.4309C35.2133 16.1592 35.688 17.1023 35.8391 18.121Z" stroke="white" stroke-width="2" stroke-linecap="round" stroke-linejoin="round"/>
</svg>