<svg xmlns="http://www.w3.org/2000/svg" width="16" height="17" viewBox="0 0 16 17" fill="none">
<path fill-rule="evenodd" clip-rule="evenodd" d="M7.99992 9.49996C8.70716 9.49996 9.38544 9.21901 9.88554 8.71891C10.3856 8.21881 10.6666 7.54054 10.6666 6.83329C10.6666 6.12605 10.3856 5.44777 9.88554 4.94767C9.38544 4.44758 8.70716 4.16663 7.99992 4.16663C7.29267 4.16663 6.6144 4.44758 6.1143 4.94767C5.6142 5.44777 5.33325 6.12605 5.33325 6.83329C5.33325 7.54054 5.6142 8.21881 6.1143 8.71891C6.6144 9.21901 7.29267 9.49996 7.99992 9.49996ZM7.99992 8.83329C8.26256 8.83329 8.52263 8.78156 8.76529 8.68105C9.00794 8.58054 9.22842 8.43322 9.41413 8.24751C9.59985 8.06179 9.74717 7.84131 9.84768 7.59866C9.94819 7.35601 9.99992 7.09594 9.99992 6.83329C9.99992 6.57065 9.94819 6.31058 9.84768 6.06793C9.74717 5.82527 9.59985 5.6048 9.41413 5.41908C9.22842 5.23336 9.00794 5.08604 8.76529 4.98553C8.52263 4.88502 8.26256 4.83329 7.99992 4.83329C7.46949 4.83329 6.96078 5.04401 6.5857 5.41908C6.21063 5.79415 5.99992 6.30286 5.99992 6.83329C5.99992 7.36373 6.21063 7.87243 6.5857 8.24751C6.96078 8.62258 7.46949 8.83329 7.99992 8.83329Z" fill="#EE10B0"/>
<path fill-rule="evenodd" clip-rule="evenodd" d="M14.6666 8.49998C14.6666 12.182 11.6819 15.1666 7.99992 15.1666C4.31792 15.1666 1.33325 12.182 1.33325 8.49998C1.33325 4.81798 4.31792 1.83331 7.99992 1.83331C11.6819 1.83331 14.6666 4.81798 14.6666 8.49998ZM11.2099 13.57C10.2502 14.1792 9.13662 14.5018 7.99992 14.5C6.83608 14.5018 5.69707 14.1635 4.72292 13.5266C4.64292 13.4266 4.56159 13.3233 4.47959 13.2166C4.38431 13.0917 4.33288 12.9388 4.33325 12.7816C4.33325 12.4226 4.59125 12.1216 4.93625 12.0713C7.21792 11.738 8.78892 11.7666 11.0736 12.083C11.239 12.107 11.3902 12.19 11.4992 12.3168C11.6082 12.4435 11.6677 12.6055 11.6666 12.7726C11.6666 12.9326 11.6116 13.088 11.5123 13.2093C11.4099 13.334 11.3089 13.4543 11.2099 13.57ZM12.3283 12.6553C12.2749 12.0313 11.8013 11.5106 11.1649 11.4226C8.82625 11.099 7.19159 11.068 4.83992 11.4116C4.19992 11.505 3.72825 12.0303 3.67225 12.656C2.59736 11.5397 1.9978 10.0497 1.99992 8.49998C1.99992 5.18631 4.68625 2.49998 7.99992 2.49998C11.3136 2.49998 13.9999 5.18631 13.9999 8.49998C14.002 10.0493 13.4027 11.5391 12.3283 12.6553Z" fill="#EE10B0"/>
</svg>