<svg xmlns="http://www.w3.org/2000/svg" width="16" height="17" viewBox="0 0 16 17" fill="none">
<g clip-path="url(#clip0_423_259)">
<path d="M8 16.5C7.26042 16.5 6.55208 16.4062 5.875 16.2188C5.19792 16.0312 4.5599 15.763 3.96094 15.4141C3.36198 15.0651 2.82292 14.6484 2.34375 14.1641C1.86458 13.6797 1.44792 13.138 1.09375 12.5391C0.739583 11.9401 0.471354 11.3021 0.289062 10.625C0.106771 9.94792 0.0104167 9.23958 0 8.5C0 7.76562 0.09375 7.05729 0.28125 6.375C0.46875 5.69271 0.736979 5.05469 1.08594 4.46094C1.4349 3.86719 1.85156 3.32812 2.33594 2.84375C2.82031 2.35938 3.36198 1.94271 3.96094 1.59375C4.5599 1.24479 5.19792 0.976562 5.875 0.789062C6.55208 0.601562 7.26042 0.505208 8 0.5C8.73438 0.5 9.44271 0.59375 10.125 0.78125C10.8073 0.96875 11.4453 1.23698 12.0391 1.58594C12.6328 1.9349 13.1719 2.35156 13.6562 2.83594C14.1406 3.32031 14.5573 3.86198 14.9062 4.46094C15.2552 5.0599 15.5234 5.69792 15.7109 6.375C15.8984 7.05208 15.9948 7.76042 16 8.5C16 9.23958 15.9062 9.94792 15.7188 10.625C15.5312 11.3021 15.263 11.9401 14.9141 12.5391C14.5651 13.138 14.1484 13.6771 13.6641 14.1562C13.1797 14.6354 12.638 15.0521 12.0391 15.4062C11.4401 15.7604 10.8021 16.0286 10.125 16.2109C9.44792 16.3932 8.73958 16.4896 8 16.5ZM8 1.5C7.35938 1.5 6.74219 1.58333 6.14844 1.75C5.55469 1.91667 4.9974 2.15104 4.47656 2.45312C3.95573 2.75521 3.48177 3.1224 3.05469 3.55469C2.6276 3.98698 2.26302 4.45833 1.96094 4.96875C1.65885 5.47917 1.42188 6.03646 1.25 6.64062C1.07812 7.24479 0.994792 7.86458 1 8.5C1 9.14062 1.08333 9.75781 1.25 10.3516C1.41667 10.9453 1.65104 11.5026 1.95312 12.0234C2.25521 12.5443 2.6224 13.0182 3.05469 13.4453C3.48698 13.8724 3.95833 14.237 4.46875 14.5391C4.97917 14.8411 5.53646 15.0781 6.14062 15.25C6.74479 15.4219 7.36458 15.5052 8 15.5C8.64062 15.5 9.25781 15.4167 9.85156 15.25C10.4453 15.0833 11.0026 14.849 11.5234 14.5469C12.0443 14.2448 12.5182 13.8776 12.9453 13.4453C13.3724 13.013 13.737 12.5417 14.0391 12.0312C14.3411 11.5208 14.5781 10.9635 14.75 10.3594C14.9219 9.75521 15.0052 9.13542 15 8.5C15 7.85938 14.9167 7.24219 14.75 6.64844C14.5833 6.05469 14.349 5.4974 14.0469 4.97656C13.7448 4.45573 13.3776 3.98177 12.9453 3.55469C12.513 3.1276 12.0417 2.76302 11.5312 2.46094C11.0208 2.15885 10.4635 1.92188 9.85938 1.75C9.25521 1.57812 8.63542 1.49479 8 1.5ZM8 8.5V3.5H7V9.5H11V8.5H8Z" fill="white"/>
</g>
<defs>
<clipPath id="clip0_423_259">
<rect width="16" height="16" fill="white" transform="translate(0 0.5)"/>
</clipPath>
</defs>
</svg>