<svg xmlns="http://www.w3.org/2000/svg" width="25" height="26" viewBox="0 0 25 26" fill="none">
<path opacity="0.6" fill-rule="evenodd" clip-rule="evenodd" d="M10.0156 16.5896C11.4196 17.7114 13.1999 18.253 14.9908 18.1032C16.7816 17.9534 18.4472 17.1236 19.6453 15.7841C20.8434 14.4447 21.4832 12.6973 21.4332 10.9009C21.3832 9.10445 20.6473 7.39535 19.3765 6.12459C18.1058 4.85384 16.3967 4.11789 14.6002 4.06791C12.8038 4.01792 11.0564 4.65769 9.71698 5.85582C8.37753 7.05394 7.54768 8.71947 7.39788 10.5103C7.24808 12.3012 7.78969 14.0815 8.91148 15.4855L3.54064 20.8552C3.46389 20.9268 3.40232 21.013 3.35962 21.1089C3.31692 21.2047 3.29396 21.3081 3.29211 21.413C3.29026 21.5179 3.30956 21.6221 3.34885 21.7194C3.38814 21.8167 3.44662 21.9051 3.52081 21.9792C3.595 22.0534 3.68337 22.1119 3.78065 22.1512C3.87793 22.1905 3.98212 22.2098 4.08702 22.2079C4.19192 22.2061 4.29537 22.1831 4.3912 22.1404C4.48704 22.0977 4.57329 22.0362 4.64481 21.9594L10.0156 16.5896ZM18.2719 14.9625C19.0364 14.1979 19.5572 13.2238 19.7682 12.1633C19.9793 11.1029 19.8713 10.0036 19.4578 9.00452C19.0443 8.00542 18.344 7.15131 17.4452 6.55014C16.5465 5.94897 15.4897 5.62773 14.4084 5.627C13.3271 5.62627 12.2699 5.9461 11.3703 6.54605C10.4708 7.14601 9.76923 7.99917 9.35441 8.99772C8.93959 9.99626 8.83008 11.0954 9.03974 12.1561C9.2494 13.2169 9.7688 14.1917 10.5323 14.9573L10.5375 14.9625L10.5427 14.9667C11.5687 15.9903 12.959 16.5648 14.4082 16.564C15.8574 16.5632 17.2471 15.9872 18.2719 14.9625Z" fill="white"/>
</svg>