<svg xmlns="http://www.w3.org/2000/svg" width="16" height="16" viewBox="0 0 16 16" fill="none">
<g clip-path="url(#clip0_423_285)">
<path d="M13.7588 9.424L13.6928 8.76067L13.6708 8.76267L13.6494 8.76667L13.7588 9.424ZM13.7588 9.424L13.8254 10.0873L13.8474 10.0853L13.8688 10.082L13.7588 9.424ZM11.0654 13.0787L11.4874 12.5627L11.4821 12.5587L11.0654 13.0787ZM11.0654 13.0787L10.6434 13.5947L10.6488 13.5993L11.0654 13.0787ZM4.93476 13.0787L4.51276 12.5633L4.50209 12.572L4.49209 12.5807L4.93476 13.0787ZM4.93476 13.0787L5.35676 13.5953L5.36743 13.5867L5.37743 13.5773L4.93476 13.0787ZM2.24076 6.576V5.90934H2.20743L2.17476 5.91267L2.24076 6.576ZM2.24076 6.576V7.24267H2.2741L2.30743 7.23934L2.24076 6.576ZM10.0874 2.174C10.0763 2.04579 10.0605 1.91795 10.0414 1.79067C10.0206 1.65062 9.97789 1.51473 9.91476 1.388L8.73009 2C8.71476 1.97 8.71809 1.95934 8.72676 2.012C8.73676 2.07134 8.74543 2.154 8.76076 2.30734L10.0874 2.174ZM10.1508 2.80734C10.1928 2.862 10.1788 2.88667 10.1554 2.75667C10.1334 2.63267 10.1161 2.45867 10.0874 2.174L8.7601 2.30667C8.78676 2.56934 8.80943 2.80534 8.84343 2.99334C8.87609 3.17334 8.93343 3.41 9.0901 3.61534L10.1508 2.80734ZM10.1508 2.80734L9.0901 3.61534C9.23277 3.80257 9.42247 3.94869 9.63991 4.03885C9.85736 4.12902 10.0948 4.16 10.3281 4.12867L10.1508 2.80734ZM10.6428 2.404C10.4933 2.53028 10.3397 2.65146 10.1821 2.76734C10.0734 2.84267 10.0821 2.816 10.1508 2.80734L10.3281 4.12867C10.5841 4.094 10.7921 3.96734 10.9428 3.862C11.0994 3.754 11.2828 3.60334 11.4868 3.436L10.6428 2.404ZM11.3201 1.97067C11.186 2.01552 11.0598 2.08121 10.9461 2.16534C10.8528 2.232 10.7481 2.318 10.6428 2.404L11.4868 3.436C11.6061 3.33867 11.6708 3.286 11.7201 3.25134C11.7634 3.22 11.7574 3.23067 11.7261 3.24067L11.3201 1.97067ZM12.2561 2.01734C11.96 1.88903 11.6275 1.87245 11.3201 1.97067L11.7261 3.24067L12.2561 2.01734ZM12.8868 2.516C12.797 2.42366 12.7043 2.33428 12.6088 2.248C12.5038 2.15303 12.3846 2.07518 12.2554 2.01734L11.7261 3.24067C11.6954 3.22734 11.6908 3.21667 11.7308 3.252C11.7761 3.292 11.8354 3.35 11.9441 3.45867L12.8868 2.516ZM13.4828 3.112L12.8868 2.516L11.9441 3.45867L12.5401 4.05467L13.4828 3.112ZM13.9814 3.74267C13.9236 3.6135 13.8457 3.49426 13.7508 3.38934C13.6643 3.29416 13.5749 3.20167 13.4828 3.112L12.5401 4.05534C12.6488 4.164 12.7068 4.22334 12.7468 4.26867C12.7821 4.30867 12.7714 4.304 12.7581 4.27334L13.9814 3.74267ZM14.0281 4.67867C14.1263 4.3713 14.1097 4.03874 13.9814 3.74267L12.7581 4.27334L14.0281 4.67867ZM13.5948 5.356C13.6777 5.25762 13.7573 5.15645 13.8334 5.05267C13.9041 4.954 13.9801 4.83134 14.0281 4.67867L12.7581 4.27334C12.7681 4.242 12.7781 4.23534 12.7474 4.27934C12.7128 4.328 12.6608 4.39267 12.5628 4.512L13.5948 5.356ZM13.1914 5.84867C13.1828 5.91734 13.1561 5.92534 13.2314 5.81667C13.3028 5.71334 13.4134 5.57734 13.5948 5.356L12.5628 4.512C12.3961 4.716 12.2448 4.89934 12.1361 5.056C12.0314 5.20667 11.9048 5.41467 11.8701 5.67067L13.1914 5.84867ZM13.1914 5.84867L11.8701 5.67067C11.8388 5.90397 11.8698 6.14141 11.9599 6.35885C12.0501 6.5763 12.1962 6.766 12.3834 6.90867L13.1914 5.84867ZM13.8248 5.912C13.6298 5.89569 13.4355 5.87279 13.2421 5.84334C13.1121 5.82 13.1368 5.80667 13.1914 5.84867L12.3834 6.90867C12.5888 7.06534 12.8248 7.12267 13.0061 7.15534C13.1934 7.18867 13.4294 7.212 13.6921 7.23867L13.8248 5.912ZM14.6108 6.084C14.484 6.02088 14.3481 5.97813 14.2081 5.95734C14.0808 5.93827 13.953 5.92315 13.8248 5.912L13.6921 7.23867C13.7908 7.24737 13.8893 7.25848 13.9874 7.272C14.0408 7.28134 14.0294 7.28467 13.9994 7.26934L14.6108 6.084ZM15.2394 6.77934C15.1209 6.47911 14.8976 6.23205 14.6108 6.084L14.0001 7.27067L15.2394 6.77934ZM15.3328 7.578C15.3328 7.442 15.3328 7.30667 15.3254 7.192C15.3185 7.05052 15.2892 6.91102 15.2388 6.77867L14.0001 7.27067C13.9881 7.23934 13.9921 7.22867 13.9961 7.282C14.0001 7.342 14.0001 7.42534 14.0001 7.57934L15.3328 7.578ZM15.3328 8.42067V7.578H13.9994V8.42067H15.3328ZM15.2394 9.21934C15.2981 9.07067 15.3174 8.928 15.3254 8.806C15.3328 8.692 15.3328 8.55667 15.3328 8.42067H13.9994C13.9994 8.57467 13.9994 8.658 13.9954 8.718C13.9914 8.77134 13.9874 8.76067 13.9994 8.72934L15.2394 9.21934ZM14.6108 9.91467C14.8976 9.76662 15.1209 9.51957 15.2394 9.21934L14.0001 8.73L14.6108 9.91467ZM13.8248 10.0867C13.9608 10.0733 14.0948 10.06 14.2081 10.0413C14.3281 10.0213 14.4681 9.988 14.6108 9.91467L14.0001 8.73C14.0294 8.71467 14.0408 8.718 13.9881 8.72667C13.89 8.74086 13.7915 8.7522 13.6928 8.76067L13.8248 10.0867ZM13.1921 10.15C13.1368 10.192 13.1121 10.1787 13.2421 10.1553C13.3661 10.1333 13.5401 10.1153 13.8248 10.0867L13.6921 8.76C13.4301 8.78667 13.1934 8.80934 13.0061 8.84334C12.8254 8.876 12.5888 8.93334 12.3834 9.09L13.1921 10.15ZM13.1921 10.15L12.3834 9.09C12.1962 9.23268 12.0501 9.42238 11.9599 9.63982C11.8698 9.85726 11.8388 10.0947 11.8701 10.328L13.1921 10.15ZM13.5948 10.642C13.4685 10.4928 13.3473 10.3394 13.2314 10.182C13.1561 10.0733 13.1834 10.0813 13.1921 10.15L11.8701 10.328C11.9048 10.584 12.0314 10.792 12.1368 10.9427C12.2454 11.0993 12.3961 11.2827 12.5628 11.4867L13.5948 10.642ZM14.0281 11.3193C13.9832 11.1855 13.9175 11.0595 13.8334 10.946C13.7668 10.852 13.6808 10.748 13.5948 10.642L12.5628 11.4867C12.6601 11.606 12.7128 11.67 12.7474 11.7193C12.7788 11.7627 12.7688 11.7573 12.7581 11.726L14.0281 11.3193ZM13.9814 12.256C14.1099 11.9597 14.1265 11.6269 14.0281 11.3193L12.7581 11.726L13.9814 12.256ZM13.4828 12.8867C13.5794 12.79 13.6748 12.6953 13.7508 12.6087C13.8308 12.5167 13.9174 12.4027 13.9814 12.2553L12.7581 11.7253C12.7714 11.6947 12.7821 11.6907 12.7468 11.7307C12.7068 11.776 12.6488 11.8347 12.5401 11.944L13.4828 12.8867ZM12.8868 13.482L13.4828 12.8867L12.5401 11.944L11.9441 12.5393L12.8868 13.482ZM12.2561 13.9813C12.3853 13.9233 12.5046 13.8452 12.6094 13.75C12.6954 13.6747 12.7908 13.5787 12.8868 13.482L11.9441 12.5393C11.8749 12.6102 11.8038 12.6791 11.7308 12.746C11.6908 12.782 11.6954 12.7713 11.7261 12.758L12.2561 13.9813ZM11.3201 14.028C11.6275 14.1262 11.96 14.1096 12.2561 13.9813L11.7261 12.758L11.3201 14.028ZM10.6428 13.5947C10.7481 13.6807 10.8521 13.7667 10.9461 13.8333C11.0448 13.9033 11.1674 13.9793 11.3201 14.028L11.7261 12.758C11.7574 12.768 11.7634 12.778 11.7194 12.7473C11.6401 12.688 11.5625 12.6264 11.4868 12.5627L10.6428 13.5947ZM10.1508 13.192C10.0821 13.182 10.0734 13.1553 10.1821 13.2307C10.2854 13.3027 10.4208 13.4127 10.6421 13.594L11.4868 12.5627C11.2828 12.3953 11.0994 12.2447 10.9428 12.136C10.7921 12.0307 10.5841 11.9047 10.3281 11.87L10.1508 13.192ZM10.1508 13.192L10.3281 11.87C10.0948 11.8387 9.85736 11.8697 9.63991 11.9598C9.42247 12.05 9.23277 12.1961 9.0901 12.3833L10.1508 13.192ZM10.0868 13.8247C10.1154 13.54 10.1334 13.3653 10.1554 13.242C10.1788 13.112 10.1921 13.136 10.1501 13.1913L9.0901 12.3827C8.93343 12.588 8.87609 12.8247 8.84343 13.0053C8.81009 13.1933 8.78743 13.4293 8.76076 13.692L10.0868 13.8247ZM9.91409 14.6107C9.98743 14.468 10.0208 14.328 10.0408 14.208C10.0608 14.0947 10.0728 13.9607 10.0868 13.8247L8.76076 13.692C8.75187 13.791 8.74031 13.889 8.7261 13.9873C8.71743 14.0407 8.7141 14.0293 8.72943 13.9993L9.91409 14.6107ZM9.22009 15.2393C9.51983 15.1206 9.76638 14.8972 9.91409 14.6107L8.73009 14L9.22009 15.2393ZM8.42009 15.3327C8.55676 15.3327 8.69209 15.3327 8.80676 15.3253C8.92809 15.3173 9.07076 15.2993 9.22009 15.2393L8.73009 14C8.76143 13.988 8.77209 13.992 8.71876 13.996C8.61971 14.0002 8.52056 14.0015 8.42143 14L8.42009 15.3327ZM7.57809 15.3327H8.42009L8.42076 13.9993H7.57809V15.3327ZM6.77943 15.2393C6.92809 15.298 7.07076 15.3173 7.19276 15.3253C7.30676 15.3327 7.44209 15.3327 7.57809 15.3327V13.9993C7.42409 13.9993 7.34076 13.9993 7.28076 13.9953C7.22743 13.9913 7.2381 13.9873 7.26943 13.9993L6.77943 15.2393ZM6.0841 14.6107C6.23214 14.8975 6.4792 15.1208 6.77943 15.2393L7.26943 13.9993L6.0841 14.6107ZM5.9121 13.8247C5.92543 13.9607 5.93876 14.0947 5.95743 14.208C5.97743 14.328 6.01076 14.468 6.0841 14.6107L7.27076 14C7.2861 14.0293 7.28276 14.0407 7.2741 13.988C7.2599 13.8899 7.24856 13.7914 7.24009 13.6927L5.9121 13.8247ZM5.84876 13.1913C5.80676 13.1367 5.8201 13.1113 5.84343 13.242C5.86543 13.3653 5.88343 13.54 5.9121 13.8247L7.23876 13.692C7.21209 13.4293 7.18943 13.1933 7.15543 13.0053C7.12276 12.8253 7.06543 12.5887 6.90876 12.3833L5.84876 13.1913ZM5.84876 13.1913L6.90876 12.3833C6.76609 12.1961 6.57639 12.05 6.35895 11.9598C6.1415 11.8697 5.90406 11.8387 5.67076 11.87L5.84876 13.1913ZM5.3561 13.5947C5.5781 13.4133 5.71343 13.3027 5.81676 13.2313C5.92543 13.156 5.91743 13.1827 5.84876 13.1913L5.67076 11.87C5.41476 11.9047 5.20676 12.0313 5.0561 12.1367C4.89943 12.2447 4.7161 12.3953 4.5121 12.5627L5.3561 13.5947ZM4.67876 14.028C4.81288 13.9832 4.93909 13.9175 5.05276 13.8333C5.1461 13.7667 5.25076 13.6807 5.3561 13.5947L4.51276 12.5633C4.43677 12.6271 4.35963 12.6887 4.2801 12.748C4.23676 12.7793 4.24276 12.7693 4.2741 12.7587L4.67876 14.028ZM3.74276 13.9813C4.03884 14.1096 4.37139 14.1262 4.67876 14.028L4.27276 12.758L3.74276 13.9813ZM3.11143 13.4827C3.2081 13.5793 3.30343 13.6747 3.3901 13.7507C3.48143 13.8307 3.59543 13.918 3.74343 13.982L4.27276 12.758C4.30343 12.7713 4.3081 12.782 4.2681 12.7467C4.195 12.6799 4.12386 12.6109 4.05476 12.54L3.11143 13.4827ZM2.5161 12.8867L3.1121 13.4827L4.05476 12.54L3.45876 11.944L2.5161 12.8867ZM2.01743 12.256C2.08076 12.4027 2.1681 12.5173 2.2481 12.6093C2.3241 12.6953 2.41943 12.7907 2.5161 12.8867L3.45876 11.944C3.38784 11.8749 3.31892 11.8038 3.25209 11.7307C3.21676 11.6907 3.22743 11.6953 3.24076 11.726L2.01743 12.256ZM1.97076 11.32C1.87254 11.6274 1.88912 11.9599 2.01743 12.256L3.24076 11.726L1.97076 11.32ZM2.4041 10.6427C2.32113 10.7411 2.24153 10.8422 2.16543 10.946C2.0813 11.0597 2.01561 11.1859 1.97076 11.32L3.24076 11.726C3.2301 11.7573 3.22076 11.7633 3.25143 11.7193C3.2861 11.6707 3.33809 11.606 3.43609 11.4867L2.4041 10.6427ZM2.80676 10.15C2.8161 10.0813 2.84276 10.0733 2.76743 10.182C2.6961 10.2853 2.58543 10.4213 2.4041 10.6427L3.43609 11.4867C3.60276 11.2827 3.7541 11.0993 3.86276 10.9427C3.96743 10.792 4.09409 10.584 4.12876 10.328L2.80676 10.15ZM2.80676 10.15L4.12876 10.328C4.1601 10.0947 4.12911 9.85726 4.03894 9.63982C3.94878 9.42238 3.80266 9.23268 3.61543 9.09L2.80676 10.15ZM2.17343 10.0867C2.45876 10.1153 2.63343 10.1333 2.75676 10.1553C2.88676 10.1787 2.8621 10.192 2.80676 10.15L3.61543 9.09C3.41009 8.93334 3.17409 8.876 2.99276 8.84334C2.80543 8.81 2.56943 8.78667 2.3061 8.76L2.17343 10.0867ZM1.3881 9.91467C1.53076 9.988 1.67076 10.0213 1.79076 10.0413C1.9041 10.06 2.03809 10.074 2.1741 10.0873L2.3061 8.76C2.20735 8.75175 2.10953 8.74064 2.01143 8.72667C1.9581 8.71734 1.96943 8.714 1.99943 8.72934L1.3881 9.91467ZM0.760095 9.22C0.878582 9.52023 1.10195 9.76729 1.38876 9.91534L2.0001 8.73L0.760095 9.22ZM0.666762 8.42134C0.666762 8.55734 0.666762 8.69267 0.674095 8.80734C0.682095 8.92867 0.700762 9.07134 0.760762 9.22067L2.0001 8.72934C2.0121 8.76067 2.0081 8.77134 2.00476 8.718C2.00036 8.61918 1.99881 8.52025 2.0001 8.42134H0.666762ZM0.666762 7.57867V8.42134H2.0001V7.57867H0.666762ZM0.760095 6.77934C0.709875 6.91174 0.680852 7.05123 0.674095 7.19267C0.666095 7.30734 0.666762 7.44267 0.666762 7.57934H2.0001C2.0001 7.42467 2.0001 7.34134 2.00476 7.28134C2.0081 7.228 2.0121 7.23867 2.0001 7.27L0.760095 6.77934ZM1.38876 6.08534C1.10219 6.23306 0.878854 6.47961 0.760095 6.77934L2.0001 7.27L1.38876 6.08534ZM2.17476 5.912C2.03876 5.926 1.90476 5.93867 1.79143 5.95867C1.67143 5.97867 1.53143 6.012 1.38876 6.08534L2.0001 7.27C1.9701 7.28534 1.95943 7.282 2.01209 7.27334C2.11019 7.25914 2.20867 7.2478 2.30743 7.23934L2.17476 5.912ZM2.80809 5.84934C2.86343 5.80734 2.8881 5.82067 2.75743 5.844C2.6341 5.866 2.45943 5.884 2.17476 5.91267L2.30743 7.23934C2.56943 7.21267 2.8061 7.19 2.9941 7.156C3.17476 7.12334 3.41143 7.066 3.61676 6.90934L2.80809 5.84934ZM2.80809 5.84934L3.61676 6.90934C3.80387 6.76659 3.94986 6.57685 4.03991 6.35942C4.12995 6.14198 4.16084 5.90458 4.12943 5.67134L2.80809 5.84934ZM2.40476 5.35667C2.5861 5.578 2.69676 5.714 2.76876 5.81734C2.84409 5.926 2.81743 5.918 2.80809 5.84934L4.12943 5.67134C4.09476 5.41534 3.96876 5.208 3.86343 5.05667C3.75476 4.9 3.60343 4.71667 3.43676 4.51267L2.40476 5.35667ZM1.97143 4.67867C2.02009 4.832 2.09543 4.954 2.1661 5.05334C2.23276 5.14667 2.31876 5.25134 2.40476 5.35667L3.43676 4.51267C3.37298 4.43668 3.3114 4.35954 3.25209 4.28C3.22076 4.23667 3.23143 4.242 3.24143 4.27334L1.97143 4.67867ZM2.0181 3.74334C1.88996 4.03922 1.87338 4.37151 1.97143 4.67867L3.24143 4.27334L2.0181 3.74334ZM2.51676 3.112C2.4201 3.20867 2.32476 3.30334 2.24876 3.39C2.15378 3.49493 2.07594 3.61417 2.0181 3.74334L3.24143 4.27334C3.2281 4.304 3.21743 4.30867 3.25276 4.268C3.29276 4.22267 3.35076 4.164 3.45943 4.05467L2.51676 3.112ZM3.11276 2.51667L2.51676 3.112L3.45943 4.05467L4.0561 3.45934L3.11276 2.51667ZM3.74343 2.01734C3.61422 2.07539 3.49497 2.15346 3.3901 2.24867C3.29492 2.33513 3.20243 2.42451 3.11276 2.51667L4.0561 3.45934C4.16476 3.35 4.22343 3.292 4.26876 3.25267C4.30876 3.21667 4.3041 3.22734 4.27343 3.24067L3.74343 2.01734ZM4.67943 1.97067C4.37206 1.87245 4.0395 1.88903 3.74343 2.01734L4.27343 3.24067L4.67943 1.97067ZM5.3561 2.404C5.25076 2.318 5.14743 2.23267 5.05343 2.166C4.9398 2.08165 4.81358 2.01573 4.67943 1.97067L4.27343 3.24067C4.24209 3.23067 4.2361 3.22067 4.2801 3.25134C4.32876 3.28667 4.39343 3.33867 4.51276 3.43667L5.3561 2.404ZM5.84943 2.80734C5.9181 2.81667 5.9261 2.84334 5.81743 2.768C5.66005 2.65211 5.50663 2.53093 5.35743 2.40467L4.51276 3.43667C4.71676 3.60334 4.89943 3.754 5.0561 3.86334C5.20676 3.968 5.41476 4.094 5.67076 4.12867L5.84943 2.80734ZM5.84943 2.80734L5.67143 4.12867C5.90473 4.16 6.14217 4.12902 6.35961 4.03885C6.57706 3.94869 6.76675 3.80257 6.90943 3.61534L5.84943 2.80734ZM5.91276 2.174C5.8841 2.45934 5.8661 2.634 5.8441 2.75734C5.82076 2.88734 5.80743 2.86267 5.84943 2.80734L6.90943 3.61534C7.0661 3.41 7.12343 3.174 7.1561 2.99334C7.18943 2.806 7.21343 2.56934 7.23943 2.30667L5.91276 2.174ZM6.08476 1.38867C6.02163 1.5154 5.97889 1.65129 5.9581 1.79134C5.93943 1.90467 5.9261 2.03867 5.91276 2.17467L7.23943 2.30667C7.24813 2.20797 7.25924 2.11016 7.27276 2.012C7.28209 1.95867 7.28543 1.97067 7.27009 2L6.08476 1.38867ZM6.7801 0.760003C6.47987 0.878491 6.23281 1.10186 6.08476 1.38867L7.27009 2L6.7801 0.760003ZM7.57876 0.66667C7.44276 0.66667 7.30743 0.66667 7.19276 0.674003C7.05132 0.680761 6.91183 0.709784 6.77943 0.760003L7.27076 2C7.23943 2.012 7.22876 2.008 7.28209 2.00467C7.3421 2.00067 7.42543 2 7.57943 2L7.57876 0.66667ZM8.42143 0.66667H7.57876V2H8.42143V0.66667ZM9.22009 0.760003C9.0877 0.709784 8.9482 0.680761 8.80676 0.674003C8.69343 0.666003 8.55809 0.66667 8.4221 0.66667V2C8.5761 2 8.65943 2 8.71943 2.00467C8.77276 2.008 8.76143 2.012 8.73009 2L9.22009 0.760003ZM9.91543 1.38867C9.76738 1.10186 9.52032 0.878491 9.22009 0.760003L8.73009 2L9.91543 1.38867ZM10.0001 8C10.0001 8.53044 9.78938 9.03914 9.41431 9.41422C9.03924 9.78929 8.53053 10 8.00009 10V11.3333C8.88415 11.3333 9.732 10.9821 10.3571 10.357C10.9822 9.7319 11.3334 8.88406 11.3334 8H10.0001ZM8.00009 6C8.53053 6 9.03924 6.21072 9.41431 6.58579C9.78938 6.96086 10.0001 7.46957 10.0001 8H11.3334C11.3334 7.11595 10.9822 6.2681 10.3571 5.64298C9.732 5.01786 8.88415 4.66667 8.00009 4.66667V6ZM6.00009 8C6.00009 7.46957 6.21081 6.96086 6.58588 6.58579C6.96095 6.21072 7.46966 6 8.00009 6V4.66667C7.11604 4.66667 6.26819 5.01786 5.64307 5.64298C5.01795 6.2681 4.66676 7.11595 4.66676 8H6.00009ZM8.00009 10C7.46966 10 6.96095 9.78929 6.58588 9.41422C6.21081 9.03914 6.00009 8.53044 6.00009 8H4.66676C4.66676 8.88406 5.01795 9.7319 5.64307 10.357C6.26819 10.9821 7.11604 11.3333 8.00009 11.3333V10Z" fill="white"/>
</g>
<defs>
<clipPath id="clip0_423_285">
<rect width="16" height="16" fill="white"/>
</clipPath>
</defs>
</svg>