<svg xmlns="http://www.w3.org/2000/svg" width="61" height="38" viewBox="0 0 61 38" fill="none">
<path d="M24.7885 23.3896C23.4451 24.4448 21.9031 25.219 20.2543 25.6661C20.0727 25.732 19.9158 25.8522 19.8049 26.0104C19.6941 26.1686 19.6346 26.3571 19.6346 26.5503C19.6346 26.7435 19.6941 26.932 19.8049 27.0903C19.9158 27.2485 20.0727 27.3687 20.2543 27.4346C33.2736 32.7778 41.5518 24.5184 40.2913 15.356L42.3984 10.9911H39.9526C36.9047 7.24715 28.8147 7.43529 30.1505 15.4124C30.1505 15.4124 25.8233 16.1838 20.292 10.7466C20.164 10.6202 20.0025 10.5332 19.8267 10.4958C19.6508 10.4585 19.4679 10.4723 19.2996 10.5356C19.1313 10.5989 18.9847 10.7092 18.8772 10.8533C18.7696 10.9974 18.7056 11.1693 18.6928 11.3486C18.1079 13.7528 18.4006 16.2867 19.5181 18.4942C20.6357 20.7017 22.5047 22.4377 24.7885 23.3896Z" stroke="white" stroke-linecap="round" stroke-linejoin="round"/>
</svg>