<svg xmlns="http://www.w3.org/2000/svg" width="16" height="17" viewBox="0 0 16 17" fill="none">
<path d="M2 4.5C2 4.36739 2.05268 4.24021 2.14645 4.14645C2.24021 4.05268 2.36739 4 2.5 4H13.5C13.6326 4 13.7598 4.05268 13.8536 4.14645C13.9473 4.24021 14 4.36739 14 4.5C14 4.63261 13.9473 4.75979 13.8536 4.85355C13.7598 4.94732 13.6326 5 13.5 5H2.5C2.36739 5 2.24021 4.94732 2.14645 4.85355C2.05268 4.75979 2 4.63261 2 4.5ZM2.5 9H10C10.1326 9 10.2598 8.94732 10.3536 8.85355C10.4473 8.75979 10.5 8.63261 10.5 8.5C10.5 8.36739 10.4473 8.24021 10.3536 8.14645C10.2598 8.05268 10.1326 8 10 8H2.5C2.36739 8 2.24021 8.05268 2.14645 8.14645C2.05268 8.24021 2 8.36739 2 8.5C2 8.63261 2.05268 8.75979 2.14645 8.85355C2.24021 8.94732 2.36739 9 2.5 9ZM7 12H2.5C2.36739 12 2.24021 12.0527 2.14645 12.1464C2.05268 12.2402 2 12.3674 2 12.5C2 12.6326 2.05268 12.7598 2.14645 12.8536C2.24021 12.9473 2.36739 13 2.5 13H7C7.13261 13 7.25979 12.9473 7.35355 12.8536C7.44732 12.7598 7.5 12.6326 7.5 12.5C7.5 12.3674 7.44732 12.2402 7.35355 12.1464C7.25979 12.0527 7.13261 12 7 12ZM15.4788 8.39375C15.4599 8.45689 15.4287 8.51567 15.387 8.56672C15.3453 8.61777 15.294 8.66008 15.2359 8.69121C15.1778 8.72235 15.1142 8.74169 15.0486 8.74813C14.983 8.75457 14.9168 8.74799 14.8538 8.72875L13 8.17188V12.5C13.0007 12.9412 12.8558 13.3702 12.5876 13.7206C12.3195 14.0709 11.9433 14.323 11.5172 14.4376C11.0912 14.5522 10.6393 14.5229 10.2316 14.3544C9.82385 14.1858 9.4832 13.8874 9.26248 13.5054C9.04176 13.1234 8.95331 12.6793 9.01088 12.2419C9.06844 11.8045 9.2688 11.3983 9.58084 11.0864C9.89288 10.7746 10.2991 10.5744 10.7366 10.5171C11.174 10.4598 11.6181 10.5484 12 10.7694V7.5C12 7.42206 12.0183 7.3452 12.0533 7.27557C12.0883 7.20593 12.1391 7.14544 12.2016 7.09893C12.2642 7.05242 12.3367 7.02117 12.4135 7.00768C12.4902 6.9942 12.5691 6.99884 12.6438 7.02125L15.1438 7.77125C15.2707 7.80941 15.3773 7.89641 15.4401 8.01315C15.5029 8.12988 15.5168 8.26678 15.4788 8.39375ZM12 12.5C12 12.3022 11.9414 12.1089 11.8315 11.9444C11.7216 11.78 11.5654 11.6518 11.3827 11.5761C11.2 11.5004 10.9989 11.4806 10.8049 11.5192C10.6109 11.5578 10.4327 11.653 10.2929 11.7929C10.153 11.9327 10.0578 12.1109 10.0192 12.3049C9.98063 12.4989 10.0004 12.7 10.0761 12.8827C10.1518 13.0654 10.28 13.2216 10.4444 13.3315C10.6089 13.4414 10.8022 13.5 11 13.5C11.2652 13.5 11.5196 13.3946 11.7071 13.2071C11.8946 13.0196 12 12.7652 12 12.5Z" fill="white"/>
</svg>